# xmcd
#
# Track frame offsets:
# 150
# 12226
# 25302
# 38293
# 50206
# 59109
# 69732
# 80009
# 93780
# 108862
# 120209
# 130525
# 138629
# 151810
# 162862
# 172813
# 182081
#
# Disc length: 2582 seconds
#
#
# Revision: 0
# Processed by: cddbd v1.4PL0 Copyright (c) Steve Scherf et al.
# Submitted via: FreeRIP 2.00 
#
DISCID=d40a1411
DTITLE=George Jones - Live At Dancetown U.S.A.
DYEAR=1986
DGENRE=Country
TTITLE0=White Lightning
TTITLE1=Something I Dreamed
TTITLE2=Aching, Breaking Heart
TTITLE3=Window Up Above
TTITLE4=Bony Moronie
TTITLE5=She Thinks I Still Care
TTITLE6=Rio City Chimes (Instumental by Buddy Emmons)
TTITLE7=Accidentaly On Purpose
TTITLE8=Who Shot Sam
TTITLE9=Pan Handle Rag (Instrumental by Buddy Emmons)
TTITLE10=I'm Ragged But I'm Right
TTITLE11=Poor Man's Riches
TTITLE12=Jole`Blon ( Instrumental by Rufus Thibodeaux)
TTITLE13=Where Does A Little Tear Come From
TTITLE14=Big Harlan Taylor
TTITLE15=She's Lonesome Again
TTITLE16=The Race Is On
EXTD=Ace CH 156
EXTT0=
EXTT1=
EXTT2=
EXTT3=
EXTT4=
EXTT5=
EXTT6=
EXTT7=
EXTT8=
EXTT9=
EXTT10=
EXTT11=
EXTT12=
EXTT13=
EXTT14=
EXTT15=
EXTT16=
PLAYORDER=
